<?xml version="1.0" encoding="UTF-8"?>
<svg width="600px" height="600px" viewBox="0 0 600 600" version="1.1" xmlns="http://www.w3.org/2000/svg" xmlns:xlink="http://www.w3.org/1999/xlink">
    <!-- Generator: Sketch 42 (36781) - http://www.bohemiancoding.com/sketch -->
    <title>1024 copy</title>
    <desc>Created with Sketch.</desc>
    <defs></defs>
    <g id="Page-1" stroke="none" stroke-width="1" fill="none" fill-rule="evenodd">
        <g id="1024-copy">
            <g id="Group-7" transform="translate(22.000000, 12.000000)">
                <g id="cloud" transform="translate(0.000000, 183.600000)" fill-rule="nonzero">
                    <path d="M96.4499261,81.1705263 L78.5012429,81.1705263 C78.3932175,81.1705263 78.2888541,81.1614 78.1826597,81.1540989 L77.6864755,81.1340211 L77.3239499,81.1540989 C77.2195864,81.1614 77.113392,81.1705263 77.0071976,81.1705263 L32.134574,81.1705263 C21.1855659,81.1705263 12.2780535,72.2906211 12.2780535,61.3737221 C12.2780535,53.7915789 17.2307403,45.9210442 24.0564764,42.6592989 L25.0946181,42.1646526 L25.0946181,41.0147368 C25.0946181,40.7829284 25.1092656,40.5474695 25.1220822,40.3101853 L25.1385606,40.0181432 L25.1165894,39.6348379 C25.1056037,39.4869916 25.0946181,39.3391453 25.0946181,39.1894737 C25.0946181,32.1457832 30.8455937,26.4126316 37.9111827,26.4126316 C38.4769425,26.4126316 39.0353785,26.4619137 39.5901527,26.5349242 C39.7329658,26.5531768 39.875779,26.5769053 40.0167612,26.6006337 C40.5056216,26.6809453 40.9871582,26.7868105 41.4613711,26.9237053 C41.5254539,26.9419579 41.5913677,26.9547347 41.6554505,26.9729874 C42.1772678,27.1317853 42.6862685,27.3325642 43.1842836,27.5588968 C43.3142802,27.6173053 43.4406149,27.6811895 43.5687805,27.7432484 C44.0082056,27.9604547 44.438476,28.1977389 44.8540989,28.4660526 C48.382316,30.7439811 50.7277473,34.6956758 50.7277473,39.1894737 C50.7277473,40.1988442 51.5461765,41.0147368 52.5586851,41.0147368 C53.5711937,41.0147368 54.3896229,40.1988442 54.3896229,39.1894737 C54.3896229,34.1626989 52.1082744,29.6634253 48.530622,26.6480905 C53.7799207,19.8033537 62.423778,15.4610526 71.0236929,15.4610526 C85.2043062,15.4610526 96.9808981,26.6590421 98.2094574,40.8103074 C96.3382389,40.6788884 93.5369041,40.6113537 90.7337383,41.03664 C89.7340463,41.1881368 89.0474446,42.1190211 89.1994124,43.1156147 C89.3367328,44.01912 90.1167123,44.6670884 91.0065481,44.6670884 C91.0980949,44.6670884 91.1914728,44.6597874 91.2830197,44.6451853 C95.3605181,44.0300716 99.6101248,44.6068547 99.8591323,44.6415347 C108.383979,46.2568926 114.81057,54.0854463 114.81057,62.8667874 C114.81057,72.9586674 106.573181,81.1705263 96.4499261,81.1705263 Z" id="Shape" fill="#00A7CE" opacity="0.800000012"></path>
                    <path d="M93.3338854,29.5583116 C92.3653193,13.1309432 78.7815917,0 62.407515,0 C52.4655227,0 42.8384518,4.86067579 36.8732564,12.7914442 C36.7359361,12.7202589 36.591292,12.6709768 36.4521407,12.6052674 C36.089615,12.4300421 35.7215965,12.2639432 35.3462543,12.1142716 C35.1375274,12.0321347 34.9288005,11.9572989 34.7182426,11.8842884 C34.3465622,11.7546947 33.969389,11.6397032 33.5848921,11.5356632 C33.3743343,11.47908 33.1656073,11.4206716 32.9532186,11.3732147 C32.5412576,11.2801263 32.1201419,11.2089411 31.6953643,11.1450568 C31.5104396,11.1176779 31.3291767,11.0811726 31.1424211,11.0610947 C30.5345497,10.99356 29.9193546,10.9515789 29.2950048,10.9515789 C20.2080605,10.9515789 12.8165646,18.3201663 12.8165646,27.3789474 C12.8165646,27.6107558 12.8312121,27.8389137 12.8458596,28.0670716 L12.8458596,28.0743726 C5.2309893,32.2140695 0,40.8840695 0,49.5631958 C0,62.4915347 10.5498636,73.0105263 23.5183961,73.0105263 L68.3910197,73.0105263 C68.5814373,73.0105263 68.7700238,72.9995747 68.9604414,72.9849726 L69.0739595,72.9703705 L69.3193052,72.9849726 C69.5060608,72.9995747 69.6928165,73.0105263 69.885065,73.0105263 L87.8337482,73.0105263 C99.9765277,73.0105263 109.856268,63.1614063 109.856268,51.0562611 C109.856268,41.0373916 102.849269,32.0516211 93.3338854,29.5583116 Z M87.8337482,69.36 L69.885065,69.36 C69.7770396,69.36 69.6726762,69.3508737 69.5664818,69.3435726 L69.0702976,69.3234947 L68.707772,69.3435726 C68.6034085,69.3508737 68.4972141,69.36 68.3910197,69.36 L23.5183961,69.36 C12.569388,69.36 3.6618756,60.4800947 3.6618756,49.5631958 C3.6618756,41.9810526 8.61456236,34.1105179 15.4402985,30.8487726 L16.4784402,30.3541263 L16.4784402,29.2042105 C16.4784402,28.9724021 16.4930877,28.7369432 16.5059043,28.4996589 L16.5223827,28.2076168 L16.5004115,27.8243116 C16.4894258,27.6764653 16.4784402,27.5286189 16.4784402,27.3789474 C16.4784402,20.3352568 22.2294159,14.6021053 29.2950048,14.6021053 C29.8607646,14.6021053 30.4192006,14.6513874 30.9739748,14.7243979 C31.1167879,14.7426505 31.2596011,14.7663789 31.4005833,14.7901074 C31.8894437,14.8704189 32.3709803,14.9762842 32.8451932,15.1131789 C32.9092761,15.1314316 32.9751898,15.1442084 33.0392726,15.1624611 C33.5610899,15.3212589 34.0700906,15.5220379 34.5681057,15.7483705 C34.6981023,15.8067789 34.824437,15.8706632 34.9526026,15.9327221 C35.3920277,16.1499284 35.8222981,16.3872126 36.237921,16.6555263 C39.7661381,18.9334547 42.1115694,22.8851495 42.1115694,27.3789474 C42.1115694,28.3883179 42.9299986,29.2042105 43.9425073,29.2042105 C44.9550159,29.2042105 45.7734451,28.3883179 45.7734451,27.3789474 C45.7734451,22.3521726 43.4920966,17.8528989 39.9144441,14.8375642 C45.1637428,7.99282737 53.8076001,3.65052632 62.407515,3.65052632 C76.5881283,3.65052632 88.3647202,14.8485158 89.5932795,28.9997811 C87.722061,28.8683621 84.9207262,28.8008274 82.1175604,29.2261137 C81.1178684,29.3776105 80.4312667,30.3084947 80.5832345,31.3050884 C80.7205549,32.2085937 81.5005344,32.8565621 82.3903702,32.8565621 C82.481917,32.8565621 82.5752949,32.8492611 82.6668418,32.8346589 C86.7443403,32.2195453 90.9939469,32.7963284 91.2429544,32.8310084 C99.7678008,34.4463663 106.194393,42.27492 106.194393,51.0562611 C106.194393,61.1481411 97.9570034,69.36 87.8337482,69.36 Z" id="Shape" stroke="#2D263B" stroke-width="4.32000006"></path>
                </g>
                <g id="Group-6" transform="translate(4.801724, 0.000000)">
                    <ellipse id="Oval-6" fill="#FFB819" opacity="0.800000012" cx="79.2284483" cy="78" rx="68.424569" ry="68.4"></ellipse>
                    <ellipse id="Oval-6" stroke="#2D263B" stroke-width="7.20000029" cx="68.424569" cy="68.4" rx="68.424569" ry="68.4"></ellipse>
                </g>
                <ellipse id="Oval-5" fill="#2D8644" opacity="0.800000012" cx="291.704741" cy="535.8" rx="265.295259" ry="31.8"></ellipse>
                <ellipse id="Oval-5" fill="#2D8644" cx="373.334052" cy="544.2" rx="183.665948" ry="31.8"></ellipse>
                <g id="Group-5" transform="translate(98.435345, 378.000000)">
                    <rect id="Rectangle-13" fill="#7F5A18" x="4.80172414" y="3.6" width="129.646552" height="12" rx="4.80000019"></rect>
                    <rect id="Rectangle-13" stroke="#2D263B" stroke-width="4.80000019" x="0" y="0" width="129.646552" height="12" rx="4.80000019"></rect>
                </g>
                <g id="Group-5" transform="translate(98.435345, 426.000000)">
                    <rect id="Rectangle-13" fill="#7F5A18" x="4.80172414" y="3.6" width="129.646552" height="12" rx="4.80000019"></rect>
                    <rect id="Rectangle-13" stroke="#2D263B" stroke-width="4.80000019" x="0" y="0" width="129.646552" height="12" rx="4.80000019"></rect>
                </g>
                <g id="Group-5" transform="translate(189.668103, 463.200000) rotate(-90.000000) translate(-189.668103, -463.200000) translate(121.843750, 455.400000)">
                    <rect id="Rectangle-13" fill="#7F5A18" x="0" y="3.6" width="129.646552" height="12" rx="4.80000019"></rect>
                    <rect id="Rectangle-13" stroke="#2D263B" stroke-width="4.80000019" x="6.00215517" y="0" width="129.646552" height="12" rx="4.80000019"></rect>
                </g>
                <g id="Group-5" transform="translate(153.655172, 463.200000) rotate(-90.000000) translate(-153.655172, -463.200000) translate(85.830819, 455.400000)">
                    <rect id="Rectangle-13" fill="#7F5A18" x="0" y="3.6" width="129.646552" height="12" rx="4.80000019"></rect>
                    <rect id="Rectangle-13" stroke="#2D263B" stroke-width="4.80000019" x="6.00215517" y="0" width="129.646552" height="12" rx="4.80000019"></rect>
                </g>
                <g id="Group-5" transform="translate(189.668103, 367.200000) rotate(-90.000000) translate(-189.668103, -367.200000) translate(121.843750, 359.400000)">
                    <rect id="Rectangle-13" fill="#7F5A18" x="0" y="3.6" width="129.646552" height="12" rx="4.80000019"></rect>
                    <rect id="Rectangle-13" stroke="#2D263B" stroke-width="4.80000019" x="6.00215517" y="0" width="129.646552" height="12" rx="4.80000019"></rect>
                </g>
                <g id="Group-5" transform="translate(153.655172, 403.200000) rotate(-90.000000) translate(-153.655172, -403.200000) translate(85.830819, 395.400000)">
                    <rect id="Rectangle-13" fill="#7F5A18" x="0" y="3.6" width="129.646552" height="12" rx="4.80000019"></rect>
                    <rect id="Rectangle-13" stroke="#2D263B" stroke-width="4.80000019" x="6.00215517" y="0" width="129.646552" height="12" rx="4.80000019"></rect>
                </g>
                <g id="Group-5" transform="translate(381.737069, 463.200000) rotate(-90.000000) translate(-381.737069, -463.200000) translate(313.912716, 455.400000)">
                    <rect id="Rectangle-13" fill="#7F5A18" x="0" y="3.6" width="129.646552" height="12" rx="4.80000019"></rect>
                    <rect id="Rectangle-13" stroke="#2D263B" stroke-width="4.80000019" x="6.00215517" y="0" width="129.646552" height="12" rx="4.80000019"></rect>
                </g>
                <g id="Group-5" transform="translate(429.754310, 463.200000) rotate(-90.000000) translate(-429.754310, -463.200000) translate(361.929957, 455.400000)">
                    <rect id="Rectangle-13" fill="#7F5A18" x="0" y="3.6" width="129.646552" height="12" rx="4.80000019"></rect>
                    <rect id="Rectangle-13" stroke="#2D263B" stroke-width="4.80000019" x="6.00215517" y="0" width="129.646552" height="12" rx="4.80000019"></rect>
                </g>
                <g id="Group-3" transform="translate(210.075431, 166.800000)">
                    <g id="Group-2" transform="translate(13.204741, 0.000000)">
                        <rect id="Rectangle-11" fill="#D8D8D8" x="7.20258621" y="6" width="27.6099138" height="28.8" rx="4.80000019"></rect>
                        <rect id="Rectangle-11" stroke="#2D263B" stroke-width="7.20000029" x="0" y="0" width="27.6099138" height="28.8" rx="4.80000019"></rect>
                    </g>
                    <g id="Group-2" transform="translate(58.821121, 0.000000)">
                        <rect id="Rectangle-11" fill="#D8D8D8" x="7.20258621" y="6" width="27.6099138" height="28.8" rx="4.80000019"></rect>
                        <rect id="Rectangle-11" stroke="#2D263B" stroke-width="7.20000029" x="0" y="0" width="27.6099138" height="28.8" rx="4.80000019"></rect>
                    </g>
                    <g id="Group-2" transform="translate(103.237069, 0.000000)">
                        <rect id="Rectangle-11" fill="#D8D8D8" x="7.20258621" y="6" width="27.6099138" height="28.8" rx="4.80000019"></rect>
                        <rect id="Rectangle-11" stroke="#2D263B" stroke-width="7.20000029" x="0" y="0" width="27.6099138" height="28.8" rx="4.80000019"></rect>
                    </g>
                    <g id="Group" transform="translate(0.000000, 28.800000)">
                        <rect id="Rectangle-10" fill="#D8D8D8" x="10.8038793" y="8.4" width="145.252155" height="37.2" rx="4.80000019"></rect>
                        <rect id="Rectangle-9" fill="#D5D5D5" x="36.012931" y="50.4" width="104.4375" height="296.4" rx="4.80000019"></rect>
                        <rect id="Rectangle-9" stroke="#2D263B" stroke-width="7.20000029" x="20.4073276" y="37.2" width="104.4375" height="296.4" rx="4.80000019"></rect>
                        <rect id="Rectangle-10" stroke="#2D263B" stroke-width="7.20000029" x="0" y="0" width="145.252155" height="37.2" rx="4.80000019"></rect>
                    </g>
                    <rect id="Rectangle-12" stroke="#2D263B" stroke-width="7.20000029" x="40.8146552" y="99.6" width="62.4224138" height="42" rx="4.80000019"></rect>
                    <rect id="Rectangle-12" stroke="#2D263B" stroke-width="7.20000029" x="40.8146552" y="171.6" width="62.4224138" height="42" rx="4.80000019"></rect>
                    <rect id="Rectangle-12" stroke="#2D263B" stroke-width="7.20000029" x="40.8146552" y="243.6" width="62.4224138" height="42" rx="4.80000019"></rect>
                </g>
                <g id="Group-4" transform="translate(284.502155, 39.600000)">
                    <path d="M0,120 L0,79.2" id="Line" stroke="#2D263B" stroke-width="7.20000029" stroke-linecap="square"></path>
                    <path d="M102.336011,48.1514754 C104.822591,49.0619304 104.822452,50.5381204 102.336011,51.4485246 L8.10364369,85.9514754 C5.61706412,86.8619304 3.6012931,85.4592174 3.6012931,82.7991432 L3.6012931,16.8008568 C3.6012931,14.1494168 5.61720271,12.7381204 8.10364369,13.6485246 L102.336011,48.1514754 Z" id="Triangle-2" fill="#06B3BA"></path>
                    <polygon id="Triangle-2" stroke="#2D263B" stroke-width="7.20000029" stroke-linecap="round" stroke-linejoin="round" points="103.237069 37.8 0 75.6 0 0"></polygon>
                </g>
                <g id="Group-5" transform="translate(338.521552, 510.000000)">
                    <rect id="Rectangle-13" fill="#7F5A18" x="4.80172414" y="3.6" width="129.646552" height="12" rx="4.80000019"></rect>
                    <rect id="Rectangle-13" stroke="#2D263B" stroke-width="4.80000019" x="0" y="0" width="129.646552" height="12" rx="4.80000019"></rect>
                </g>
                <g id="Group-5" transform="translate(338.521552, 474.000000)">
                    <rect id="Rectangle-13" fill="#7F5A18" x="4.80172414" y="3.6" width="129.646552" height="12" rx="4.80000019"></rect>
                    <rect id="Rectangle-13" stroke="#2D263B" stroke-width="4.80000019" x="0" y="0" width="129.646552" height="12" rx="4.80000019"></rect>
                </g>
                <g id="Group-5" transform="translate(98.435345, 474.000000)">
                    <rect id="Rectangle-13" fill="#7F5A18" x="4.80172414" y="3.6" width="129.646552" height="12" rx="4.80000019"></rect>
                    <rect id="Rectangle-13" stroke="#2D263B" stroke-width="4.80000019" x="0" y="0" width="129.646552" height="12" rx="4.80000019"></rect>
                </g>
                <g id="cloud" transform="translate(405.745690, 70.800000)" fill-rule="nonzero">
                    <path d="M107.50148,90.72 L87.4961769,90.72 C87.3757737,90.72 87.2594519,90.7098 87.1410894,90.70164 L86.5880509,90.6792 L86.1839858,90.70164 C86.067664,90.7098 85.9493015,90.72 85.830939,90.72 L35.8166606,90.72 C23.6130787,90.72 13.6849138,80.7954 13.6849138,68.59416 C13.6849138,60.12 19.2050959,51.32352 26.8129476,47.67804 L27.9700431,47.1252 L27.9700431,45.84 C27.9700431,45.58092 27.986369,45.31776 28.0006541,45.05256 L28.0190207,44.72616 L27.9945319,44.29776 C27.9822875,44.13252 27.9700431,43.96728 27.9700431,43.8 C27.9700431,35.92764 34.3799847,29.52 42.2551724,29.52 C42.8857588,29.52 43.5081823,29.57508 44.1265244,29.65668 C44.2857015,29.67708 44.4448787,29.7036 44.6020151,29.73012 C45.1468907,29.81988 45.6836034,29.9382 46.2121532,30.0912 C46.2835789,30.1116 46.3570453,30.12588 46.4284709,30.14628 C47.0100797,30.32376 47.5774034,30.54816 48.1324828,30.80112 C48.2773748,30.8664 48.4181853,30.9378 48.5610366,31.00716 C49.0508125,31.24992 49.5303847,31.51512 49.993631,31.815 C53.9261231,34.36092 56.5403017,38.77752 56.5403017,43.8 C56.5403017,44.92812 57.4525093,45.84 58.5810345,45.84 C59.7095597,45.84 60.6217672,44.92812 60.6217672,43.8 C60.6217672,38.18184 58.0790142,33.15324 54.0914224,29.78316 C59.9422032,22.13316 69.5765026,17.28 79.1618244,17.28 C94.9672996,17.28 108.093293,29.7954 109.462624,45.61152 C107.376995,45.46464 104.254674,45.38916 101.130312,45.86448 C100.016072,46.0338 99.2507976,47.0742 99.4201784,48.18804 C99.5732334,49.19784 100.442586,49.92204 101.434382,49.92204 C101.536418,49.92204 101.640496,49.91388 101.742532,49.89756 C106.287244,49.21008 111.023785,49.85472 111.301325,49.89348 C120.802976,51.69888 127.965948,60.44844 127.965948,70.26288 C127.965948,81.54204 118.784692,90.72 107.50148,90.72 Z" id="Shape" fill="#00A7CE" opacity="0.800000012"></path>
                    <path d="M104.028393,33.03576 C102.948845,14.67576 87.8086491,0 69.5583761,0 C58.4771972,0 47.7470244,5.43252 41.098317,14.29632 C40.9452621,14.21676 40.7840442,14.16168 40.6289485,14.08824 C40.2248834,13.8924 39.8146961,13.70676 39.3963459,13.53948 C39.1637024,13.44768 38.9310588,13.36404 38.6963746,13.28244 C38.2821058,13.1376 37.8617149,13.00908 37.433161,12.8928 C37.1984767,12.82956 36.9658332,12.76428 36.7291082,12.71124 C36.2699433,12.6072 35.8005748,12.52764 35.3271248,12.45624 C35.1210108,12.42564 34.9189782,12.38484 34.7108235,12.3624 C34.0333002,12.28692 33.347614,12.24 32.6517241,12.24 C22.5235675,12.24 14.2851293,20.47548 14.2851293,30.6 C14.2851293,30.85908 14.3014552,31.11408 14.317781,31.36908 L14.317781,31.37724 C5.83037349,36.00396 0,45.69396 0,55.39416 C0,69.84348 11.7587022,81.6 26.2132123,81.6 L76.2274907,81.6 C76.4397269,81.6 76.6499224,81.58776 76.8621586,81.57144 L76.9886841,81.55512 L77.2621422,81.57144 C77.470297,81.58776 77.6784517,81.6 77.8927287,81.6 L97.8980319,81.6 C111.432172,81.6 122.443966,70.59216 122.443966,57.06288 C122.443966,45.86532 114.634081,35.8224 104.028393,33.03576 Z M97.8980319,77.52 L77.8927287,77.52 C77.7723254,77.52 77.6560037,77.5098 77.5376412,77.50164 L76.9846026,77.4792 L76.5805375,77.50164 C76.4642157,77.5098 76.3458532,77.52 76.2274907,77.52 L26.2132123,77.52 C14.0096304,77.52 4.08146552,67.5954 4.08146552,55.39416 C4.08146552,46.92 9.60164763,38.12352 17.2094994,34.47804 L18.3665948,33.9252 L18.3665948,32.64 C18.3665948,32.38092 18.3829207,32.11776 18.3972058,31.85256 L18.4155724,31.52616 L18.3910836,31.09776 C18.3788392,30.93252 18.3665948,30.76728 18.3665948,30.6 C18.3665948,22.72764 24.7765364,16.32 32.6517241,16.32 C33.2823106,16.32 33.9047341,16.37508 34.5230761,16.45668 C34.6822532,16.47708 34.8414304,16.5036 34.9985668,16.53012 C35.5434425,16.61988 36.0801552,16.7382 36.608705,16.8912 C36.6801306,16.9116 36.753597,16.92588 36.8250226,16.94628 C37.4066315,17.12376 37.9739552,17.34816 38.5290345,17.60112 C38.6739265,17.6664 38.8147371,17.7378 38.9575884,17.80716 C39.4473642,18.04992 39.9269364,18.31512 40.3901828,18.615 C44.3226748,21.16092 46.9368534,25.57752 46.9368534,30.6 C46.9368534,31.72812 47.849061,32.64 48.9775862,32.64 C50.1061114,32.64 51.018319,31.72812 51.018319,30.6 C51.018319,24.98184 48.4755659,19.95324 44.4879741,16.58316 C50.338755,8.93316 59.9730543,4.08 69.5583761,4.08 C85.3638513,4.08 98.4898444,16.5954 99.8591761,32.41152 C97.7735472,32.26464 94.6512261,32.18916 91.5268642,32.66448 C90.4126241,32.8338 89.6473494,33.8742 89.8167302,34.98804 C89.9697851,35.99784 90.8391373,36.72204 91.8309334,36.72204 C91.93297,36.72204 92.0370474,36.71388 92.1390841,36.69756 C96.6837959,36.01008 101.420337,36.65472 101.697876,36.69348 C111.199528,38.49888 118.3625,47.24844 118.3625,57.06288 C118.3625,68.34204 109.181243,77.52 97.8980319,77.52 Z" id="Shape" stroke="#2D263B" stroke-width="4.80000019"></path>
                </g>
            </g>
        </g>
    </g>
</svg>