<?xml version="1.0" encoding="UTF-8"?>
<svg width="600px" height="600px" viewBox="0 0 600 600" version="1.1" xmlns="http://www.w3.org/2000/svg" xmlns:xlink="http://www.w3.org/1999/xlink">
    <!-- Generator: Sketch 42 (36781) - http://www.bohemiancoding.com/sketch -->
    <title>1024 copy</title>
    <desc>Created with Sketch.</desc>
    <defs></defs>
    <g id="Page-1" stroke="none" stroke-width="1" fill="none" fill-rule="evenodd">
        <g id="1024-copy">
            <g id="Group-7" transform="translate(68.000000, 60.000000)">
                <g id="cloud" transform="translate(0.000000, 153.000000)" fill-rule="nonzero">
                    <path d="M80.3460785,67.6421053 L65.3942131,67.6421053 C65.3042243,67.6421053 65.217286,67.6345 65.1288224,67.6284158 L64.7154841,67.6116842 L64.4134879,67.6284158 C64.3265495,67.6345 64.238086,67.6421053 64.1496224,67.6421053 L26.7691963,67.6421053 C17.6482991,67.6421053 10.2280374,60.2421842 10.2280374,51.1447684 C10.2280374,44.8263158 14.3537944,38.2675368 20.0398654,35.5494158 L20.9046729,35.1372105 L20.9046729,34.1789474 C20.9046729,33.9857737 20.9168748,33.7895579 20.9275514,33.5918211 L20.9412785,33.3484526 L20.9229757,33.0290316 C20.9138243,32.9058263 20.9046729,32.7826211 20.9046729,32.6578947 C20.9046729,26.7881526 25.6954318,22.0105263 31.5813084,22.0105263 C32.0526056,22.0105263 32.5178019,22.0515947 32.9799477,22.1124368 C33.0989159,22.1276474 33.2178841,22.1474211 33.3353271,22.1671947 C33.7425645,22.2341211 34.1437009,22.3223421 34.5387364,22.4364211 C34.5921196,22.4516316 34.647028,22.4622789 34.7004112,22.4774895 C35.1351028,22.6098211 35.5591178,22.7771368 35.9739813,22.9657474 C36.0822729,23.0144211 36.187514,23.0676579 36.2942804,23.1193737 C36.6603364,23.3003789 37.0187664,23.4981158 37.3649944,23.7217105 C40.3041196,25.6199842 42.2579439,28.9130632 42.2579439,32.6578947 C42.2579439,33.4990368 42.9397234,34.1789474 43.7831776,34.1789474 C44.6266318,34.1789474 45.3084112,33.4990368 45.3084112,32.6578947 C45.3084112,28.4689158 43.4079701,24.7195211 40.4276636,22.2067421 C44.8005084,16.5027947 52.0011364,12.8842105 59.1651589,12.8842105 C70.9780935,12.8842105 80.7883963,22.2158684 81.811828,34.0085895 C80.2530393,33.8990737 77.9194318,33.8427947 75.5842991,34.1972 C74.7515215,34.3234474 74.1795589,35.0991842 74.3061533,35.9296789 C74.4205458,36.6826 75.0702953,37.2225737 75.8115589,37.2225737 C75.8878206,37.2225737 75.9656075,37.2164895 76.0418692,37.2043211 C79.4385645,36.6917263 82.9786318,37.1723789 83.1860636,37.2012789 C90.2875514,38.5474105 95.6411215,45.0712053 95.6411215,52.3889895 C95.6411215,60.7988895 88.7790953,67.6421053 80.3460785,67.6421053 Z" id="Shape" fill="#00A7CE" opacity="0.800000012"></path>
                    <path d="M77.7503103,24.6319263 C76.9434617,10.9424526 65.6277533,0 51.9875888,0 C43.7055701,0 35.6858916,4.05056316 30.7166804,10.6595368 C30.6022879,10.6002158 30.4817944,10.5591474 30.3658766,10.5043895 C30.0638804,10.3583684 29.7573084,10.2199526 29.4446355,10.0952263 C29.2707589,10.0267789 29.0968822,9.96441579 28.9214804,9.90357368 C28.6118579,9.79557895 28.2976598,9.69975263 27.9773607,9.61305263 C27.8019589,9.5659 27.6280822,9.51722632 27.4511551,9.47767895 C27.1079776,9.40010526 26.7571738,9.34078421 26.4033196,9.28754737 C26.249271,9.26473158 26.0982729,9.23431053 25.9426991,9.21757895 C25.4363215,9.1613 24.923843,9.12631579 24.4037383,9.12631579 C16.8340037,9.12631579 10.6766355,15.2668053 10.6766355,22.8157895 C10.6766355,23.0089632 10.6888374,23.1990947 10.7010393,23.3892263 L10.7010393,23.3953105 C4.35759252,26.8450579 0,34.0700579 0,41.3026632 C0,52.0762789 8.78839626,60.8421053 19.5916262,60.8421053 L56.9720523,60.8421053 C57.1306766,60.8421053 57.2877757,60.8329789 57.4464,60.8208105 L57.5409645,60.8086421 L57.7453458,60.8208105 C57.9009196,60.8329789 58.0564935,60.8421053 58.216643,60.8421053 L73.1685084,60.8421053 C83.2838579,60.8421053 91.5140187,52.6345053 91.5140187,42.5468842 C91.5140187,34.1978263 85.6769495,26.7096842 77.7503103,24.6319263 Z M73.1685084,57.8 L58.216643,57.8 C58.1266542,57.8 58.0397159,57.7923947 57.9512523,57.7863105 L57.537914,57.7695789 L57.2359178,57.7863105 C57.1489794,57.7923947 57.0605159,57.8 56.9720523,57.8 L19.5916262,57.8 C10.470729,57.8 3.05046729,50.4000789 3.05046729,41.3026632 C3.05046729,34.9842105 7.1762243,28.4254316 12.8622953,25.7073105 L13.7271028,25.2951053 L13.7271028,24.3368421 C13.7271028,24.1436684 13.7393047,23.9474526 13.7499813,23.7497158 L13.7637084,23.5063474 L13.7454056,23.1869263 C13.7362542,23.0637211 13.7271028,22.9405158 13.7271028,22.8157895 C13.7271028,16.9460474 18.5178617,12.1684211 24.4037383,12.1684211 C24.8750355,12.1684211 25.3402318,12.2094895 25.8023776,12.2703316 C25.9213458,12.2855421 26.040314,12.3053158 26.157757,12.3250895 C26.5649944,12.3920158 26.9661308,12.4802368 27.3611664,12.5943158 C27.4145495,12.6095263 27.4694579,12.6201737 27.5228411,12.6353842 C27.9575327,12.7677158 28.3815477,12.9350316 28.7964112,13.1236421 C28.9047028,13.1723158 29.0099439,13.2255526 29.1167103,13.2772684 C29.4827664,13.4582737 29.8411963,13.6560105 30.1874243,13.8796053 C33.1265495,15.7778789 35.0803738,19.0709579 35.0803738,22.8157895 C35.0803738,23.6569316 35.7621533,24.3368421 36.6056075,24.3368421 C37.4490617,24.3368421 38.1308411,23.6569316 38.1308411,22.8157895 C38.1308411,18.6268105 36.2304,14.8774158 33.2500935,12.3646368 C37.6229383,6.66068947 44.8235664,3.04210526 51.9875888,3.04210526 C63.8005234,3.04210526 73.6108262,12.3737632 74.6342579,24.1664842 C73.0754692,24.0569684 70.7418617,24.0006895 68.406729,24.3550947 C67.5739514,24.4813421 67.0019888,25.2570789 67.1285832,26.0875737 C67.2429757,26.8404947 67.8927252,27.3804684 68.6339888,27.3804684 C68.7102505,27.3804684 68.7880374,27.3743842 68.8642991,27.3622158 C72.2609944,26.8496211 75.8010617,27.3302737 76.0084935,27.3591737 C83.1099813,28.7053053 88.4635514,35.2291 88.4635514,42.5468842 C88.4635514,50.9567842 81.6015252,57.8 73.1685084,57.8 Z" id="Shape" stroke="#2D263B" stroke-width="3.5999999"></path>
                </g>
                <g id="Group-6" transform="translate(4.000000, 0.000000)">
                    <circle id="Oval-6" fill="#FFB819" opacity="0.800000012" cx="66" cy="65" r="57"></circle>
                    <circle id="Oval-6" stroke="#2D263B" stroke-width="6" cx="57" cy="57" r="57"></circle>
                </g>
                <ellipse id="Oval-5" fill="#2D8644" opacity="0.800000012" cx="243" cy="446.5" rx="221" ry="26.5"></ellipse>
                <ellipse id="Oval-5" fill="#2D8644" cx="311" cy="453.5" rx="153" ry="26.5"></ellipse>
                <g id="Group-5" transform="translate(82.000000, 315.000000)">
                    <rect id="Rectangle-13" fill="#7F5A18" x="4" y="3" width="108" height="10" rx="4"></rect>
                    <rect id="Rectangle-13" stroke="#2D263B" stroke-width="4" x="0" y="0" width="108" height="10" rx="4"></rect>
                </g>
                <g id="Group-5" transform="translate(82.000000, 355.000000)">
                    <rect id="Rectangle-13" fill="#7F5A18" x="4" y="3" width="108" height="10" rx="4"></rect>
                    <rect id="Rectangle-13" stroke="#2D263B" stroke-width="4" x="0" y="0" width="108" height="10" rx="4"></rect>
                </g>
                <g id="Group-5" transform="translate(158.000000, 386.000000) rotate(-90.000000) translate(-158.000000, -386.000000) translate(101.500000, 379.500000)">
                    <rect id="Rectangle-13" fill="#7F5A18" x="0" y="3" width="108" height="10" rx="4"></rect>
                    <rect id="Rectangle-13" stroke="#2D263B" stroke-width="4" x="5" y="0" width="108" height="10" rx="4"></rect>
                </g>
                <g id="Group-5" transform="translate(128.000000, 386.000000) rotate(-90.000000) translate(-128.000000, -386.000000) translate(71.500000, 379.500000)">
                    <rect id="Rectangle-13" fill="#7F5A18" x="0" y="3" width="108" height="10" rx="4"></rect>
                    <rect id="Rectangle-13" stroke="#2D263B" stroke-width="4" x="5" y="0" width="108" height="10" rx="4"></rect>
                </g>
                <g id="Group-5" transform="translate(158.000000, 306.000000) rotate(-90.000000) translate(-158.000000, -306.000000) translate(101.500000, 299.500000)">
                    <rect id="Rectangle-13" fill="#7F5A18" x="0" y="3" width="108" height="10" rx="4"></rect>
                    <rect id="Rectangle-13" stroke="#2D263B" stroke-width="4" x="5" y="0" width="108" height="10" rx="4"></rect>
                </g>
                <g id="Group-5" transform="translate(128.000000, 336.000000) rotate(-90.000000) translate(-128.000000, -336.000000) translate(71.500000, 329.500000)">
                    <rect id="Rectangle-13" fill="#7F5A18" x="0" y="3" width="108" height="10" rx="4"></rect>
                    <rect id="Rectangle-13" stroke="#2D263B" stroke-width="4" x="5" y="0" width="108" height="10" rx="4"></rect>
                </g>
                <g id="Group-5" transform="translate(318.000000, 386.000000) rotate(-90.000000) translate(-318.000000, -386.000000) translate(261.500000, 379.500000)">
                    <rect id="Rectangle-13" fill="#7F5A18" x="0" y="3" width="108" height="10" rx="4"></rect>
                    <rect id="Rectangle-13" stroke="#2D263B" stroke-width="4" x="5" y="0" width="108" height="10" rx="4"></rect>
                </g>
                <g id="Group-5" transform="translate(358.000000, 386.000000) rotate(-90.000000) translate(-358.000000, -386.000000) translate(301.500000, 379.500000)">
                    <rect id="Rectangle-13" fill="#7F5A18" x="0" y="3" width="108" height="10" rx="4"></rect>
                    <rect id="Rectangle-13" stroke="#2D263B" stroke-width="4" x="5" y="0" width="108" height="10" rx="4"></rect>
                </g>
                <g id="Group-3" transform="translate(175.000000, 139.000000)">
                    <g id="Group-2" transform="translate(11.000000, 0.000000)">
                        <rect id="Rectangle-11" fill="#D8D8D8" x="6" y="5" width="23" height="24" rx="4"></rect>
                        <rect id="Rectangle-11" stroke="#2D263B" stroke-width="6" x="0" y="0" width="23" height="24" rx="4"></rect>
                    </g>
                    <g id="Group-2" transform="translate(49.000000, 0.000000)">
                        <rect id="Rectangle-11" fill="#D8D8D8" x="6" y="5" width="23" height="24" rx="4"></rect>
                        <rect id="Rectangle-11" stroke="#2D263B" stroke-width="6" x="0" y="0" width="23" height="24" rx="4"></rect>
                    </g>
                    <g id="Group-2" transform="translate(86.000000, 0.000000)">
                        <rect id="Rectangle-11" fill="#D8D8D8" x="6" y="5" width="23" height="24" rx="4"></rect>
                        <rect id="Rectangle-11" stroke="#2D263B" stroke-width="6" x="0" y="0" width="23" height="24" rx="4"></rect>
                    </g>
                    <g id="Group" transform="translate(0.000000, 24.000000)">
                        <rect id="Rectangle-10" fill="#D8D8D8" x="9" y="7" width="121" height="31" rx="4"></rect>
                        <rect id="Rectangle-9" fill="#D5D5D5" x="30" y="42" width="87" height="247" rx="4"></rect>
                        <rect id="Rectangle-9" stroke="#2D263B" stroke-width="6" x="17" y="31" width="87" height="247" rx="4"></rect>
                        <rect id="Rectangle-10" stroke="#2D263B" stroke-width="6" x="0" y="0" width="121" height="31" rx="4"></rect>
                    </g>
                    <rect id="Rectangle-12" stroke="#2D263B" stroke-width="6" x="34" y="83" width="52" height="35" rx="4"></rect>
                    <rect id="Rectangle-12" stroke="#2D263B" stroke-width="6" x="34" y="143" width="52" height="35" rx="4"></rect>
                    <rect id="Rectangle-12" stroke="#2D263B" stroke-width="6" x="34" y="203" width="52" height="35" rx="4"></rect>
                </g>
                <g id="Group-4" transform="translate(237.000000, 33.000000)">
                    <path d="M0,100 L0,66" id="Line" stroke="#2D263B" stroke-width="6" stroke-linecap="square"></path>
                    <path d="M85.2493884,40.1262295 C87.320794,40.884942 87.3206785,42.1151003 85.2493884,42.8737705 L6.75061162,71.6262295 C4.67920602,72.384942 3,71.2160145 3,68.999286 L3,14.000714 C3,11.7911807 4.67932147,10.6151003 6.75061162,11.3737705 L85.2493884,40.1262295 Z" id="Triangle-2" fill="#06B3BA"></path>
                    <polygon id="Triangle-2" stroke="#2D263B" stroke-width="6" stroke-linecap="round" stroke-linejoin="round" points="86 31.5 0 63 0 0"></polygon>
                </g>
                <g id="Group-5" transform="translate(282.000000, 425.000000)">
                    <rect id="Rectangle-13" fill="#7F5A18" x="4" y="3" width="108" height="10" rx="4"></rect>
                    <rect id="Rectangle-13" stroke="#2D263B" stroke-width="4" x="0" y="0" width="108" height="10" rx="4"></rect>
                </g>
                <g id="Group-5" transform="translate(282.000000, 395.000000)">
                    <rect id="Rectangle-13" fill="#7F5A18" x="4" y="3" width="108" height="10" rx="4"></rect>
                    <rect id="Rectangle-13" stroke="#2D263B" stroke-width="4" x="0" y="0" width="108" height="10" rx="4"></rect>
                </g>
                <g id="Group-5" transform="translate(82.000000, 395.000000)">
                    <rect id="Rectangle-13" fill="#7F5A18" x="4" y="3" width="108" height="10" rx="4"></rect>
                    <rect id="Rectangle-13" stroke="#2D263B" stroke-width="4" x="0" y="0" width="108" height="10" rx="4"></rect>
                </g>
                <g id="cloud" transform="translate(338.000000, 59.000000)" fill-rule="nonzero">
                    <path d="M89.5524,75.6 L72.8873,75.6 C72.787,75.6 72.6901,75.5915 72.5915,75.5847 L72.1308,75.566 L71.7942,75.5847 C71.6973,75.5915 71.5987,75.6 71.5001,75.6 L29.8365,75.6 C19.6705,75.6 11.4,67.3295 11.4,57.1618 C11.4,50.1 15.9985,42.7696 22.3361,39.7317 L23.3,39.271 L23.3,38.2 C23.3,37.9841 23.3136,37.7648 23.3255,37.5438 L23.3408,37.2718 L23.3204,36.9148 C23.3102,36.7771 23.3,36.6394 23.3,36.5 C23.3,29.9397 28.6397,24.6 35.2,24.6 C35.7253,24.6 36.2438,24.6459 36.7589,24.7139 C36.8915,24.7309 37.0241,24.753 37.155,24.7751 C37.6089,24.8499 38.056,24.9485 38.4963,25.076 C38.5558,25.093 38.617,25.1049 38.6765,25.1219 C39.161,25.2698 39.6336,25.4568 40.096,25.6676 C40.2167,25.722 40.334,25.7815 40.453,25.8393 C40.861,26.0416 41.2605,26.2626 41.6464,26.5125 C44.9223,28.6341 47.1,32.3146 47.1,36.5 C47.1,37.4401 47.8599,38.2 48.8,38.2 C49.7401,38.2 50.5,37.4401 50.5,36.5 C50.5,31.8182 48.3818,27.6277 45.06,24.8193 C49.9339,18.4443 57.9596,14.4 65.9445,14.4 C79.111,14.4 90.0454,24.8295 91.1861,38.0096 C89.4487,37.8872 86.8477,37.8243 84.245,38.2204 C83.3168,38.3615 82.6793,39.2285 82.8204,40.1567 C82.9479,40.9982 83.6721,41.6017 84.4983,41.6017 C84.5833,41.6017 84.67,41.5949 84.755,41.5813 C88.5409,41.0084 92.4866,41.5456 92.7178,41.5779 C100.633,43.0824 106.6,50.3737 106.6,58.5524 C106.6,67.9517 98.9517,75.6 89.5524,75.6 Z" id="Shape" fill="#00A7CE" opacity="0.800000012"></path>
                    <path d="M86.6592,27.5298 C85.7599,12.2298 73.1476,0 57.9445,0 C48.7135,0 39.7749,4.5271 34.2363,11.9136 C34.1088,11.8473 33.9745,11.8014 33.8453,11.7402 C33.5087,11.577 33.167,11.4223 32.8185,11.2829 C32.6247,11.2064 32.4309,11.1367 32.2354,11.0687 C31.8903,10.948 31.5401,10.8409 31.1831,10.744 C30.9876,10.6913 30.7938,10.6369 30.5966,10.5927 C30.2141,10.506 29.8231,10.4397 29.4287,10.3802 C29.257,10.3547 29.0887,10.3207 28.9153,10.302 C28.3509,10.2391 27.7797,10.2 27.2,10.2 C18.7629,10.2 11.9,17.0629 11.9,25.5 C11.9,25.7159 11.9136,25.9284 11.9272,26.1409 L11.9272,26.1477 C4.8569,30.0033 0,38.0783 0,46.1618 C0,58.2029 9.7954,68 21.8365,68 L63.5001,68 C63.6769,68 63.852,67.9898 64.0288,67.9762 L64.1342,67.9626 L64.362,67.9762 C64.5354,67.9898 64.7088,68 64.8873,68 L81.5524,68 C92.8268,68 102,58.8268 102,47.5524 C102,38.2211 95.4941,29.852 86.6592,27.5298 Z M81.5524,64.6 L64.8873,64.6 C64.787,64.6 64.6901,64.5915 64.5915,64.5847 L64.1308,64.566 L63.7942,64.5847 C63.6973,64.5915 63.5987,64.6 63.5001,64.6 L21.8365,64.6 C11.6705,64.6 3.4,56.3295 3.4,46.1618 C3.4,39.1 7.9985,31.7696 14.3361,28.7317 L15.3,28.271 L15.3,27.2 C15.3,26.9841 15.3136,26.7648 15.3255,26.5438 L15.3408,26.2718 L15.3204,25.9148 C15.3102,25.7771 15.3,25.6394 15.3,25.5 C15.3,18.9397 20.6397,13.6 27.2,13.6 C27.7253,13.6 28.2438,13.6459 28.7589,13.7139 C28.8915,13.7309 29.0241,13.753 29.155,13.7751 C29.6089,13.8499 30.056,13.9485 30.4963,14.076 C30.5558,14.093 30.617,14.1049 30.6765,14.1219 C31.161,14.2698 31.6336,14.4568 32.096,14.6676 C32.2167,14.722 32.334,14.7815 32.453,14.8393 C32.861,15.0416 33.2605,15.2626 33.6464,15.5125 C36.9223,17.6341 39.1,21.3146 39.1,25.5 C39.1,26.4401 39.8599,27.2 40.8,27.2 C41.7401,27.2 42.5,26.4401 42.5,25.5 C42.5,20.8182 40.3818,16.6277 37.06,13.8193 C41.9339,7.4443 49.9596,3.4 57.9445,3.4 C71.111,3.4 82.0454,13.8295 83.1861,27.0096 C81.4487,26.8872 78.8477,26.8243 76.245,27.2204 C75.3168,27.3615 74.6793,28.2285 74.8204,29.1567 C74.9479,29.9982 75.6721,30.6017 76.4983,30.6017 C76.5833,30.6017 76.67,30.5949 76.755,30.5813 C80.5409,30.0084 84.4866,30.5456 84.7178,30.5779 C92.633,32.0824 98.6,39.3737 98.6,47.5524 C98.6,56.9517 90.9517,64.6 81.5524,64.6 Z" id="Shape" stroke="#2D263B" stroke-width="4"></path>
                </g>
            </g>
        </g>
    </g>
</svg>